<?xml version="1.0" encoding="utf-8"?>
<!-- Generator: Adobe Illustrator 25.2.0, SVG Export Plug-In . SVG Version: 6.00 Build 0)  -->
<svg version="1.1" id="Слой_1" xmlns="http://www.w3.org/2000/svg" xmlns:xlink="http://www.w3.org/1999/xlink" x="0px" y="0px"
	 viewBox="0 0 256 256" style="enable-background:new 0 0 256 256;" xml:space="preserve">
<style type="text/css">
	.st0{fill:#E83E5B;}
	.st1{fill:#F8F8FC;stroke:#FBBB11;stroke-width:12;stroke-miterlimit:10;}
	.st2{fill:#D8EEFA;}
	.st3{fill:#AFC60F;}
	.st4{fill:#75B840;}
	.st5{fill:#FFFFFF;}
</style>
<path class="st0" d="M193.85,236.2L30.62,206.64c-6.49-1.18-10.85-7.45-9.67-13.95L50.51,29.47c1.18-6.49,7.45-10.85,13.95-9.67
	l163.23,29.56c6.49,1.18,10.85,7.45,9.67,13.95L207.8,226.53C206.62,233.03,200.35,237.38,193.85,236.2z"/>
<path class="st1" d="M196.09,226.13H29.81c-6.6,0-12-5.4-12-12V47.86c0-6.6,5.4-12,12-12h166.27c6.6,0,12,5.4,12,12v166.27
	C208.09,220.73,202.69,226.13,196.09,226.13z"/>
<path class="st2" d="M179.07,171.42H46.84c-6.6,0-12-5.4-12-12V64.88c0-6.6,5.4-12,12-12h132.23c6.6,0,12,5.4,12,12v94.54
	C191.07,166.02,185.67,171.42,179.07,171.42z"/>
<path class="st3" d="M46.84,171.42h66.14L74.35,128l-32.42,42.35C43.43,171.03,45.09,171.42,46.84,171.42z"/>
<path class="st4" d="M90.72,171.42h88.35c2.74,0,5.27-0.94,7.3-2.51l-48.18-64.06L90.72,171.42z"/>
<circle class="st5" cx="100.4" cy="96.15" r="11.91"/>
</svg>
