<?xml version="1.0" encoding="utf-8"?>
<!-- Generator: Adobe Illustrator 25.2.0, SVG Export Plug-In . SVG Version: 6.00 Build 0)  -->
<svg version="1.1" id="Слой_1" xmlns="http://www.w3.org/2000/svg" xmlns:xlink="http://www.w3.org/1999/xlink" x="0px" y="0px"
	 viewBox="0 0 256 256" style="enable-background:new 0 0 256 256;" xml:space="preserve">
<style type="text/css">
	.st0{fill:none;stroke:#E83E5B;stroke-width:12;stroke-miterlimit:10;}
	.st1{fill:none;stroke:#E83E5B;stroke-width:11;stroke-miterlimit:10;}
	.st2{fill:#AFC60F;}
	.st3{fill:#75B840;}
	.st4{fill:#FBBB11;stroke:#FBBB11;stroke-width:8;stroke-miterlimit:10;}
	.st5{fill:#FBBB11;stroke:#FBBB11;stroke-width:7;stroke-miterlimit:10;}
</style>
<path class="st0" d="M244.3,86.42c14.08,40.38-27.44,91.41-89.26,117.41c-36.9,15.52-65.62,22.46-94.43,21.61
	c-13.69-0.4-12.03-22.42-20.41-33.61c-8.6-11.5-15.21-6-25.24-25.44c-19.62-38,25.85-91.01,89.17-113.09S230.22,46.04,244.3,86.42z"
	/>
<ellipse transform="matrix(0.9332 -0.3594 0.3594 0.9332 -62.6381 45.0083)" class="st1" cx="89.72" cy="190.96" rx="24.51" ry="13.43"/>
<circle class="st2" cx="55.6" cy="143.84" r="20.77"/>
<circle class="st3" cx="93.47" cy="101.81" r="21.57"/>
<circle class="st2" cx="146.5" cy="78.07" r="19.99"/>
<ellipse transform="matrix(0.5212 -0.8535 0.8535 0.5212 17.3988 208.3305)" class="st4" cx="194.36" cy="88.66" rx="92.09" ry="8.85"/>
<path class="st5" d="M148.86,198.89c-4.48,6.27-17.13,13.38-17.13,13.38l1.38-12.71l-13.54,16.88l-15.71,11.07
	c0,0,0.36-34.87,12.5-51.85s29.25-25.54,38.22-19.13S160.99,181.91,148.86,198.89z"/>
</svg>
