<?xml version="1.0" encoding="utf-8"?>
<!-- Generator: Adobe Illustrator 25.2.0, SVG Export Plug-In . SVG Version: 6.00 Build 0)  -->
<svg version="1.1" id="Слой_1" xmlns="http://www.w3.org/2000/svg" xmlns:xlink="http://www.w3.org/1999/xlink" x="0px" y="0px"
	 viewBox="0 0 256 256" style="enable-background:new 0 0 256 256;" xml:space="preserve">
<style type="text/css">
	.st0{fill:none;stroke:#E83E5B;stroke-width:10;stroke-linecap:round;stroke-linejoin:round;stroke-miterlimit:10;}
	.st1{fill:none;stroke:#FBBB11;stroke-width:20;stroke-miterlimit:10;}
	.st2{fill:none;stroke:#AFC60F;stroke-width:11;stroke-linecap:round;stroke-miterlimit:10;}
</style>
<path class="st0" d="M159.55,69.94c1.23,0,2.45,0.02,3.66,0.07c41.73,1.49,74.98,28.32,74.98,61.21c0,19.39-11.17,37.32-29.59,47.9
	c-7.43,4.27,16.49,32.38,8.32,32.27c-29.85-0.4-36.23-20.93-42.37-20.01c-4.85,0.73-9.86,1.11-14.99,1.11
	c-17.16,0-33.03-4.28-45.96-11.55"/>
<path class="st1" d="M185.39,117.99c0,36.24-36.75,65.62-82.09,65.62c-5.68,0-5.05,0.11-10.4-0.77
	c-2.85-0.47-16.77,9.94-28.19,16.09c-10.14,5.45-25.28,5.8-22.81,2.89c13.66-16.04,18.63-27.62,13.83-30.35
	c-20.89-11.9-34.51-31.42-34.51-53.48c0-36.24,36.75-65.62,82.09-65.62S185.39,81.75,185.39,117.99z"/>
<line class="st2" x1="76.91" y1="106.53" x2="130.19" y2="106.36"/>
<line class="st2" x1="77.77" y1="133.09" x2="131.04" y2="132.92"/>
</svg>
